PathFileType	4	(X/Y/Z)	D:\TRACE\spot_10-12-23\spot_arm_body_motion_1_4-platform.trc
DataRate	CameraRate	NumFrames	NumMarkers	Units	OrigDataRate	OrigDataStartFrame	OrigNumFrames
100.00	100.00	      60	5	mm	100.00	6126	      7000
Frame#	Time	Left_Front			Right_Front			Left_Aft			Right_Aft			Post			
		X1	Y1	Z1	X2	Y2	Z2	X3	Y3	Z3	X4	Y4	Z4	X5	Y5	Z5	

6126	61.250	-786.15649	38.05590	-645.02002	781.64966	35.60619	-620.15881	-714.59430	-7.46671	493.03635	695.51788	-11.28992	592.90369	15.74971	782.22345	-926.37390	
6127	61.260	-785.15771	38.12305	-644.97833	782.60638	35.66208	-620.09589	-713.68811	-7.50839	492.94781	696.38373	-11.43947	592.92389	16.87115	782.44342	-925.34924	
6128	61.270	-784.14441	37.98623	-644.74933	783.39941	35.68458	-620.12634	-712.82806	-7.60942	492.82465	697.41791	-11.72843	593.00574	17.59607	782.55725	-924.95251	
6129	61.280	-783.18311	38.17678	-644.72198	784.36041	35.89878	-620.04761	-711.61963	-7.73754	493.01944	698.19171	-11.93496	593.05353	18.76431	782.87067	-924.07654	
6130	61.290	-782.24524	38.52267	-644.71423	785.31726	36.40108	-619.98248	-710.96503	-7.92601	493.08734	699.25275	-12.06573	593.21887	19.60814	783.30731	-923.66199	
6131	61.300	-781.33673	38.87846	-644.48657	786.29553	36.18258	-619.71167	-709.69019	-8.20517	493.19095	700.31616	-12.16953	593.25854	20.39777	783.74200	-923.57617	
6132	61.310	-780.23230	38.94384	-644.38263	787.41675	36.71042	-619.76410	-708.82446	-8.39581	493.25803	701.29919	-12.20072	593.22522	23.93434	784.25702	-921.36035	
6133	61.320	-779.22235	39.00034	-644.40051	788.32861	36.89965	-619.80756	-707.97461	-8.51786	493.26923	702.33154	-12.49769	593.34033	22.95540	784.29474	-922.67651	
6134	61.330	-778.44513	39.32772	-644.39941	789.40161	37.06761	-619.52789	-706.76935	-8.63747	493.36240	703.12164	-12.79788	593.39148	24.00106	784.53015	-922.64423	
6135	61.340	-777.38855	39.53471	-644.26489	790.27527	37.21219	-619.56921	-705.91193	-8.67647	493.24643	704.06146	-12.86185	593.44775	24.32289	784.95465	-923.43268	
6136	61.350	-776.40259	39.83166	-644.13873	791.28687	37.54185	-619.48444	-704.68115	-8.72948	493.33411	705.10693	-13.01832	593.45721	25.15547	785.35474	-923.52759	
6137	61.360	-775.52191	40.14666	-644.05682	792.42621	37.96694	-619.35571	-703.72919	-8.91216	493.34769	706.06873	-13.21725	593.41022	26.38801	785.66992	-923.33777	
6138	61.370	-774.53082	40.30066	-644.16272	793.21509	37.95770	-619.39557	-702.81128	-9.06428	493.41647	706.96399	-13.25641	593.54584	28.20310	785.80927	-922.19928	
6139	61.380	-773.49274	40.32226	-644.00037	794.27509	37.98482	-619.30914	-701.66461	-9.08974	493.39615	707.88940	-13.54301	593.63458	28.89991	785.99304	-922.18970	
6140	61.390	-772.56104	40.28229	-643.98114	795.11804	38.02009	-619.27100	-701.02759	-9.20089	493.45123	708.95563	-13.64391	593.65161	29.25285	785.89093	-922.40869	
6141	61.400	-771.60553	40.54284	-644.05322	796.06702	38.22277	-619.29950	-699.81989	-9.34795	493.49014	709.92285	-13.52917	593.76099	30.23343	786.08948	-921.91016	
6142	61.410	-770.66791	40.79483	-644.11896	797.09473	38.40763	-619.26416	-699.05676	-9.26286	493.51620	710.86499	-13.63404	593.78064	31.11052	786.35748	-921.70154	
6143	61.420	-769.61713	40.88814	-643.83142	798.05963	38.66064	-619.12897	-698.10626	-9.32995	493.54883	711.90143	-13.95435	593.72565	32.18448	786.55597	-921.17334	
6144	61.430	-768.82483	41.03699	-643.70825	799.01715	38.73281	-619.10266	-696.91760	-9.68805	493.63062	712.59265	-14.08921	593.33398	32.96631	786.64838	-920.87061	
6145	61.440	-767.78204	41.11843	-643.78961	799.68579	38.53430	-619.06482	-696.25531	-9.83652	493.63248	713.54010	-14.22575	593.41632	34.41080	786.90240	-920.18683	
6146	61.450	-766.90594	41.26582	-643.74548	800.89349	38.87440	-618.99475	-695.07220	-9.89985	493.70898	714.69543	-14.43852	593.87469	34.92270	787.23114	-920.23456	
6147	61.460	-765.85309	41.42326	-643.51294	801.87134	39.22115	-618.91406	-694.23767	-9.90703	493.67856	715.50323	-14.32865	593.87390	35.95878	787.52997	-919.93317	
6148	61.470	-764.66705	41.59708	-643.62164	802.84155	39.50525	-618.80939	-693.38391	-9.96808	493.75174	716.73444	-14.40448	593.91986	36.75261	787.80566	-919.92749	
6149	61.480	-764.00458	41.77659	-643.64966	803.77679	39.52209	-618.78125	-692.24316	-10.11479	493.90140	717.66449	-14.63451	594.00098	37.58550	788.04022	-919.94720	
6150	61.490	-763.18060	41.79794	-643.54260	804.61682	39.61139	-618.76416	-691.60791	-10.20940	493.87115	718.42688	-14.72673	594.07434	38.59647	788.08990	-920.03497	
6151	61.500	-762.06873	41.73606	-643.35272	805.56671	39.71847	-618.68762	-690.42828	-10.46975	493.90271	719.46106	-14.78291	594.17181	39.65985	788.22015	-919.82538	
6152	61.510	-761.20013	42.07045	-643.35724	806.51190	39.97757	-618.72003	-689.51648	-10.53653	493.92282	720.35919	-14.88225	594.13501	40.86049	788.36920	-919.25043	
6153	61.520	-760.40765	42.26637	-643.29626	806.75024	39.74356	-619.09308	-688.71082	-10.46045	493.98254	721.18793	-15.00565	594.19989	41.20680	788.68311	-919.50281	
6154	61.530	-759.50549	42.40678	-643.27795	808.00275	39.75535	-618.88623	-687.63135	-10.53466	494.03574	722.12146	-15.10805	594.22992	42.21726	788.70898	-919.25079	
6155	61.540	-758.44818	42.24866	-643.22479	808.93018	39.89408	-618.77673	-686.89313	-10.68136	494.06735	722.98285	-15.17540	594.27570	43.16759	788.76935	-919.12848	
6156	61.550	-757.53491	42.27846	-643.18951	809.87567	39.98668	-618.69275	-686.02002	-10.68741	494.11911	723.94751	-15.23168	594.28461	44.03590	788.84076	-919.03235	
6157	61.560	-756.82422	42.41297	-643.22089	810.87103	40.11025	-618.64099	-685.10553	-10.74391	494.08060	724.88525	-15.19267	594.24921	44.99043	788.98334	-918.73248	
6158	61.570	-755.82684	42.59897	-643.33148	811.81067	40.42705	-618.56720	-684.28424	-10.77060	494.02933	725.61597	-15.29961	594.30121	48.44413	789.42871	-916.58374	
6159	61.580	-754.90698	42.61753	-643.22363	812.72583	40.62098	-618.60498	-683.30621	-10.89128	494.09460	726.56415	-15.28957	594.34778	46.60354	789.44727	-918.57025	
6160	61.590	-754.06165	42.43041	-643.03644	813.50903	40.49935	-618.54919	-682.39178	-11.02939	494.15588	727.43756	-15.44782	594.34479	47.51403	789.53326	-918.29718	
6161	61.600	-753.27869	42.43005	-643.04852	814.38391	40.43359	-618.55444	-681.53497	-11.14593	494.17352	728.07922	-15.60516	594.19366	48.21558	789.57373	-918.17938	
6162	61.610	-752.50781	42.72412	-643.12152	815.16022	40.68713	-618.45630	-680.61389	-11.22434	494.22382	729.14484	-15.75976	594.55817	49.36510	789.62994	-918.14392	
6163	61.620	-751.42242	42.88456	-642.98828	816.14740	40.77784	-618.33685	-679.94977	-11.22516	494.21725	730.02509	-15.61205	594.55157	50.39719	789.85217	-918.00226	
6164	61.630	-750.66913	43.10325	-642.76685	817.07477	40.82346	-618.23016	-679.13293	-11.20538	494.29117	730.95697	-15.71822	594.57666	50.95052	790.11798	-918.08875	
6165	61.640	-749.89978	43.12639	-642.79498	817.79126	40.95247	-618.22443	-678.26709	-11.25877	494.34189	731.78699	-15.69835	594.59760	51.84640	790.12573	-917.83002	
6166	61.650	-749.21613	43.07597	-642.95654	818.53589	41.02407	-618.27850	-677.46313	-11.35838	494.32364	732.46100	-15.88377	594.68372	52.44923	790.16742	-917.69318	
6167	61.660	-748.48181	43.10240	-642.91595	819.26410	41.03629	-618.32910	-676.76428	-11.34672	494.39914	733.06934	-15.87412	594.56860	53.19608	790.10303	-917.48987	
6168	61.670	-747.51636	43.01725	-642.81744	819.93988	41.03319	-618.35034	-675.82776	-11.59862	494.40036	734.03381	-16.14151	594.55365	53.99670	790.20068	-917.33295	
6169	61.680	-746.70197	43.27111	-642.84119	820.81830	41.12414	-618.32043	-675.09296	-11.58278	494.37390	734.77728	-15.98455	594.52216	54.82142	790.24463	-917.18207	
6170	61.690	-746.05267	43.22833	-642.83997	821.64532	41.12083	-618.22400	-674.27222	-11.45322	494.42810	735.40125	-16.05830	594.33185	55.56627	790.25964	-917.20227	
6171	61.700	-745.39087	43.24715	-642.88385	822.40790	41.10949	-618.14294	-673.63080	-11.44341	494.45911	736.19147	-15.87477	594.61639	56.39676	790.26111	-917.20654	
6172	61.710	-744.72156	43.14935	-642.87689	823.05579	41.01474	-618.24536	-673.09583	-11.40505	494.43292	736.81384	-15.96934	594.59222	57.12229	790.23132	-917.04004	
6173	61.720	-743.88190	43.03157	-642.75775	823.63263	40.95312	-618.26514	-672.29590	-11.50668	494.47827	737.66364	-15.95455	594.59473	57.71429	790.31250	-917.02820	
6174	61.730	-743.12439	43.05778	-642.82629	824.36676	41.11224	-618.15942	-671.60126	-11.50660	494.46988	738.34583	-15.96902	594.55341	58.35325	790.24744	-917.22888	
6175	61.740	-742.54858	43.21346	-642.85510	825.17578	41.16856	-618.13214	-670.83734	-11.40731	494.43234	739.02100	-15.88431	594.60065	58.96363	790.23297	-917.50299	
6176	61.750	-741.94421	43.23278	-642.84100	825.80255	41.23889	-618.17908	-670.22949	-11.32094	494.40475	739.58331	-15.90593	594.61432	59.66658	790.18945	-917.65009	
6177	61.760	-741.30194	43.07394	-643.05585	826.33411	41.14746	-618.19629	-669.76196	-11.29967	494.34421	740.13397	-15.90927	594.62811	60.29691	790.11359	-917.68164	
6178	61.770	-740.67712	42.92369	-642.88574	826.95227	40.97371	-618.24371	-669.07062	-11.29617	494.28793	740.80695	-15.90114	594.65240	60.94095	790.01819	-917.63916	
6179	61.780	-739.93555	42.77783	-642.77979	827.68109	40.89375	-618.20874	-668.36053	-11.26492	494.34390	741.34711	-15.86216	594.32806	61.50083	790.01086	-917.73157	
6180	61.790	-739.35345	42.69320	-642.81958	828.34680	40.92485	-618.16278	-667.75439	-11.19803	494.37744	742.22723	-15.74896	594.62567	62.18393	790.01007	-917.82532	
6181	61.800	-738.89294	42.72970	-642.80774	828.83527	40.89875	-618.15405	-667.32532	-11.12065	494.40915	742.75171	-15.59894	594.62726	62.72133	789.93109	-917.88220	
6182	61.810	-738.37744	42.84164	-642.83405	829.29883	40.82776	-618.11163	-666.84674	-11.11494	494.45157	743.28070	-15.62346	594.66711	63.36272	789.82080	-917.95795	
6183	61.820	-737.80792	42.64419	-642.92206	829.78613	40.74843	-618.11511	-666.16565	-11.18309	494.47476	743.78864	-15.58641	594.63879	63.80624	789.76434	-917.90552	
6184	61.830	-737.32281	42.52371	-642.98212	830.36981	40.63597	-618.18799	-665.59686	-11.17122	494.50787	744.23743	-15.55115	594.64044	64.22435	789.67877	-917.93365	
6185	61.840	-736.80505	42.48431	-642.86005	830.96619	40.54502	-618.25677	-665.14502	-11.09258	494.45593	744.61151	-15.50375	594.60126	64.77710	789.54437	-917.92499	
